<?xml version="1.0" standalone="no"?>
<!DOCTYPE svg PUBLIC "-//W3C//DTD SVG 20010904//EN"
 "http://www.w3.org/TR/2001/REC-SVG-20010904/DTD/svg10.dtd">
<svg version="1.0" xmlns="http://www.w3.org/2000/svg"
 width="1500.000000pt" height="1500.000000pt" viewBox="0 0 1500.000000 1500.000000"
 preserveAspectRatio="xMidYMid meet">
<metadata>
Created by potrace 1.11, written by Peter Selinger 2001-2013
</metadata>
<g transform="translate(0.000000,1500.000000) scale(0.100000,-0.100000)"
fill="#000000" stroke="none">
<path d="M7998 12439 c-6 -4 -5 -9 3 -12 8 -3 -26 -6 -76 -7 -49 -1 -103 -3
-120 -5 -16 -1 -75 -5 -130 -9 -55 -4 -109 -9 -120 -11 -11 -2 -38 -7 -60 -10
-22 -3 -116 -19 -210 -34 -93 -16 -186 -32 -205 -35 -19 -3 -48 -8 -64 -11
-15 -2 -34 -9 -40 -15 -7 -5 -16 -7 -19 -3 -4 3 -7 -1 -7 -9 0 -21 -42 -28
-176 -28 -63 0 -122 -4 -132 -9 -27 -14 -101 -31 -182 -42 -41 -5 -109 -18
-150 -28 -41 -10 -95 -19 -120 -20 -24 0 -49 -6 -54 -11 -6 -6 -28 -10 -49
-10 -21 0 -53 -6 -70 -14 -18 -8 -43 -17 -57 -19 -59 -13 -118 -31 -156 -48
-22 -11 -45 -19 -51 -19 -10 0 -45 -14 -168 -65 -16 -7 -48 -18 -70 -25 -22
-7 -72 -28 -112 -46 -40 -19 -76 -34 -80 -34 -4 0 -26 -9 -48 -19 -22 -11 -65
-29 -95 -41 -30 -12 -91 -43 -135 -68 -44 -25 -98 -56 -120 -68 -22 -11 -62
-34 -90 -49 -27 -16 -71 -40 -97 -54 -26 -14 -85 -48 -130 -76 -46 -27 -91
-54 -100 -60 -9 -5 -53 -35 -98 -65 -44 -30 -82 -53 -84 -50 -2 3 -12 -2 -22
-12 -11 -9 -41 -28 -69 -44 -50 -27 -94 -55 -151 -96 -121 -87 -495 -456 -564
-558 -21 -30 -47 -64 -59 -74 -11 -11 -21 -23 -21 -29 0 -5 -18 -31 -41 -58
-39 -47 -101 -134 -176 -249 -20 -30 -68 -97 -107 -149 -39 -52 -75 -101 -81
-110 -5 -9 -28 -41 -51 -71 -65 -88 -193 -304 -194 -328 0 -7 -11 -28 -25 -46
-14 -18 -25 -40 -25 -49 0 -9 -11 -41 -25 -71 -14 -30 -25 -64 -25 -75 0 -11
-4 -23 -10 -26 -5 -3 -10 -15 -10 -26 0 -11 -6 -30 -14 -42 -8 -12 -16 -38
-19 -57 -2 -19 -11 -51 -20 -70 -20 -46 -47 -134 -47 -155 0 -21 -60 -135 -71
-135 -4 0 -11 14 -14 32 -7 30 -8 31 -21 13 -8 -10 -14 -30 -14 -44 0 -15 -4
-21 -9 -15 -10 10 -52 154 -75 257 -15 63 -94 302 -161 486 l-38 102 -79 40
c-103 52 -144 57 -235 29 -40 -12 -78 -28 -85 -37 -7 -8 -36 -26 -65 -39 -30
-13 -95 -49 -146 -80 -50 -32 -109 -65 -130 -74 -29 -13 -50 -36 -87 -96 -28
-43 -51 -90 -51 -104 -1 -14 -3 -45 -4 -69 -3 -39 1 -48 29 -75 61 -57 105
-78 171 -80 58 -1 64 2 170 66 61 37 124 71 141 74 20 4 36 15 43 31 9 19 16
23 34 18 73 -21 143 -104 188 -225 25 -66 38 -265 39 -609 0 -214 2 -236 40
-470 59 -355 67 -393 116 -523 53 -138 71 -225 78 -368 5 -104 20 -196 52
-320 9 -36 20 -92 26 -125 38 -243 75 -412 143 -650 131 -456 217 -643 468
-1013 50 -72 94 -132 99 -132 4 0 8 -6 8 -12 1 -37 632 -728 665 -728 3 0 19
-16 36 -35 17 -19 36 -35 43 -35 6 0 17 -9 24 -21 7 -12 15 -19 18 -17 5 5 51
-34 153 -128 37 -33 100 -80 141 -104 41 -23 118 -69 170 -100 172 -105 266
-147 510 -225 168 -54 225 -74 410 -145 74 -28 200 -74 280 -101 80 -28 132
-47 116 -44 -15 3 -42 8 -60 11 -28 4 -27 3 9 -11 81 -32 283 -87 365 -99 47
-7 99 -20 117 -29 50 -26 157 -48 257 -52 50 -2 145 -15 211 -29 66 -14 136
-26 156 -26 20 0 49 -6 65 -14 18 -8 80 -16 162 -19 73 -3 139 -10 146 -16 27
-23 117 -31 362 -31 203 -1 274 2 327 15 48 11 158 19 360 25 300 9 492 26
702 60 135 22 265 58 262 73 -1 5 21 18 48 27 39 14 44 19 25 20 -17 1 -9 6
25 15 28 7 100 27 160 44 61 17 169 45 240 61 281 65 351 84 374 102 13 10 30
18 37 18 31 0 480 221 605 298 504 310 871 611 1059 868 24 32 71 93 105 134
54 66 123 163 217 303 15 22 31 43 35 46 5 3 15 19 23 36 8 16 50 76 93 133
42 57 90 125 104 151 15 25 66 100 113 166 137 194 215 320 299 485 74 147 94
198 121 315 6 28 21 61 33 75 37 42 67 88 67 105 0 8 4 15 9 15 11 0 134 313
148 380 3 14 10 30 15 37 5 7 7 16 4 22 -4 5 1 17 10 25 10 10 16 33 16 62 0
25 5 60 12 77 8 18 14 52 15 77 0 25 8 68 16 96 42 144 54 246 74 639 6 113
13 170 24 191 12 23 14 46 10 88 l-6 58 78 75 c43 41 114 99 159 128 44 30 97
69 117 87 l35 33 -9 245 -9 245 -46 40 c-26 22 -86 76 -133 120 -47 44 -119
106 -160 137 -41 31 -123 105 -184 164 -60 59 -146 130 -190 159 -44 28 -141
96 -215 149 -141 102 -172 135 -293 316 -55 82 -94 134 -356 470 -97 124 -198
261 -226 306 -113 180 -138 206 -370 392 -120 98 -299 242 -396 322 -124 101
-206 160 -271 194 -100 53 -390 224 -528 312 -47 30 -111 68 -144 85 -81 42
-296 126 -381 148 -38 11 -146 42 -240 70 -154 46 -342 87 -352 77 -2 -2 20
-9 49 -16 59 -14 94 -29 68 -30 -8 0 -31 4 -50 9 -19 5 -60 12 -90 14 -30 3
-77 8 -105 11 -44 6 -47 5 -25 -6 l25 -12 -27 -4 c-29 -4 -37 -17 -15 -25 6
-3 -13 -4 -43 -2 -247 16 -456 35 -488 45 -25 8 -24 8 13 10 37 1 38 2 15 11
-14 6 -90 14 -170 18 -80 5 -123 9 -96 9 27 1 47 5 43 8 -8 8 -247 20 -259 13z
m325 -66 c-7 -2 -21 -2 -30 0 -10 3 -4 5 12 5 17 0 24 -2 18 -5z m190 -175
c31 -2 57 -6 57 -10 0 -9 67 -28 98 -28 15 0 26 7 29 20 7 25 23 26 23 3 0
-11 3 -14 8 -7 14 22 50 24 123 9 109 -23 149 -37 149 -51 0 -14 37 -27 125
-44 33 -7 70 -18 82 -26 13 -8 48 -14 83 -14 65 0 150 -17 150 -30 0 -4 6 -8
13 -7 33 1 47 -4 47 -18 0 -8 4 -15 9 -15 5 0 11 -8 14 -19 4 -18 15 -20 197
-36 77 -7 321 -104 435 -174 78 -48 120 -76 123 -84 2 -4 7 -5 12 -2 5 3 14
-1 22 -8 14 -14 69 -40 106 -52 12 -3 22 -11 22 -16 0 -5 6 -9 13 -9 6 0 18
-4 26 -9 12 -8 12 -12 2 -25 -18 -21 3 -21 23 0 15 14 17 14 22 0 3 -9 4 -22
1 -29 -5 -14 6 -17 56 -19 17 -1 27 -6 27 -16 0 -8 6 -12 15 -9 8 4 17 2 20
-3 4 -6 15 -10 26 -10 11 0 17 -4 14 -10 -3 -5 -1 -10 5 -10 6 0 8 -5 5 -10
-3 -6 1 -13 10 -16 13 -5 14 -9 4 -15 -7 -4 -36 3 -66 16 -29 13 -53 20 -53
14 0 -5 5 -9 10 -9 6 0 10 -5 10 -11 0 -18 76 -89 86 -80 5 4 26 18 46 30 28
17 36 19 32 8 -4 -12 0 -14 15 -10 24 6 42 -10 65 -59 10 -21 23 -36 28 -35 6
1 12 -6 13 -15 4 -20 -8 -23 -36 -8 -15 8 -19 7 -19 -4 0 -8 6 -17 13 -19 7
-3 5 -6 -5 -6 -10 -1 -18 -7 -18 -13 -1 -7 -7 1 -15 17 l-13 30 -1 -32 c-1
-27 -4 -31 -18 -26 -16 6 -16 5 -4 -10 10 -13 11 -17 1 -17 -7 0 -3 -9 10 -20
13 -11 20 -23 17 -26 -8 -8 19 -60 44 -87 12 -13 15 -24 9 -32 -6 -7 -1 -21
15 -40 14 -15 25 -36 25 -46 0 -10 14 -34 30 -52 17 -19 30 -39 30 -44 0 -19
82 -103 99 -103 21 0 46 -26 55 -57 4 -13 12 -23 17 -23 6 0 8 -4 5 -9 -8 -12
18 -21 42 -14 37 9 111 -49 83 -66 -10 -7 43 -71 58 -71 6 0 16 -9 24 -20 8
-11 17 -17 20 -14 4 4 9 -1 13 -10 3 -9 14 -16 25 -16 21 0 55 -30 88 -78 13
-18 30 -32 40 -30 19 2 75 -26 104 -53 18 -17 18 -19 4 -25 -24 -9 -21 -21 9
-47 27 -23 29 -24 69 -26 16 -1 25 -7 26 -18 0 -10 3 -13 5 -6 6 13 34 6 34
-8 0 -5 -11 -7 -25 -5 -26 5 -43 -10 -28 -25 9 -9 69 -21 120 -23 39 -1 47 -9
38 -36 -5 -16 -10 -18 -20 -10 -7 6 -20 8 -29 4 -18 -7 -13 -48 10 -75 8 -8
14 -21 14 -27 0 -6 18 -21 40 -33 22 -13 40 -26 40 -31 0 -4 8 -8 17 -8 9 0
26 -8 37 -19 12 -10 35 -23 51 -28 19 -6 31 -17 33 -31 4 -25 -1 -27 -30 -11
-22 12 -68 4 -68 -12 0 -6 7 -17 16 -26 8 -9 13 -22 10 -29 -3 -7 2 -27 11
-44 8 -17 13 -40 10 -50 -3 -11 3 -26 13 -35 10 -9 16 -23 13 -31 -3 -8 0 -14
7 -14 6 0 9 -4 6 -9 -3 -4 1 -17 9 -27 8 -10 15 -30 15 -44 0 -14 12 -39 28
-56 l27 -30 -22 -33 c-25 -37 -29 -51 -13 -51 6 0 10 5 10 12 0 9 3 9 12 0 14
-14 -9 -45 -28 -38 -8 3 -19 -3 -27 -13 -17 -26 -53 -32 -49 -8 2 9 -2 17 -8
17 -5 0 -10 -4 -10 -9 0 -5 -19 -33 -43 -63 -41 -50 -55 -83 -87 -211 -12 -43
-17 -49 -69 -76 -31 -15 -90 -51 -131 -78 -41 -27 -97 -60 -125 -73 -27 -13
-52 -27 -55 -30 -3 -4 -27 -12 -55 -19 -27 -7 -66 -16 -85 -21 -186 -49 -223
-60 -229 -66 -3 -4 5 -4 19 0 14 3 84 19 155 35 72 17 139 33 150 37 11 4 16
3 12 -1 -4 -5 -112 -37 -240 -71 -315 -83 -411 -112 -697 -206 -135 -44 -251
-83 -259 -86 -8 -3 -12 -1 -8 5 4 6 45 25 92 43 48 17 84 34 82 36 -2 3 -17 0
-32 -6 -16 -6 -35 -8 -44 -5 -11 4 4 18 49 47 36 22 70 48 77 57 7 9 13 12 13
8 0 -5 13 1 29 12 16 12 33 21 38 21 5 0 28 14 51 31 47 35 81 91 77 129 -2
26 20 60 39 60 7 0 19 8 28 19 9 10 52 42 97 72 45 29 81 58 81 66 0 7 4 13 9
13 4 0 21 12 36 26 28 25 28 27 10 40 -10 8 -13 14 -6 14 7 0 9 4 6 10 -6 10
-48 8 -112 -5 -39 -7 -40 0 -17 68 18 52 30 62 89 70 167 22 201 30 243 58 45
30 141 65 207 76 25 4 59 21 90 45 39 31 44 38 25 34 -14 -3 -51 -8 -83 -11
-31 -4 -64 -13 -72 -21 -10 -10 -20 -12 -32 -6 -29 15 -158 -4 -216 -32 -74
-35 -164 -49 -219 -35 -23 6 -55 12 -70 14 -16 1 -33 3 -39 4 -6 0 -9 13 -7
29 3 23 15 33 88 69 114 58 188 80 363 109 124 21 156 24 198 15 68 -15 66
-16 72 27 6 50 32 115 47 120 9 3 9 7 -1 13 -10 6 -11 11 -3 19 27 27 -23 80
-75 80 -10 0 -21 5 -23 11 -2 7 -33 14 -68 16 -35 2 -103 8 -150 12 -63 6
-107 4 -170 -7 -47 -8 -79 -17 -72 -19 17 -6 15 -24 -5 -39 -15 -11 -16 -15
-4 -23 27 -18 -23 -50 -89 -57 -216 -24 -643 -134 -915 -235 -341 -127 -551
-225 -617 -287 -149 -138 -221 -181 -328 -192 -89 -10 -148 9 -189 58 -17 20
-38 44 -46 53 -10 10 -11 19 -4 26 5 5 9 36 7 67 l-3 56 -45 -23 c-45 -24
-134 -48 -97 -26 9 5 17 14 17 19 0 11 -58 -5 -79 -23 -16 -13 -79 -41 -116
-51 -11 -3 -31 -27 -44 -52 -36 -68 -105 -139 -159 -165 -26 -13 -64 -35 -85
-50 -71 -51 -155 -47 -235 11 -64 46 -82 91 -82 205 0 76 -3 95 -14 95 -19 0
-58 49 -49 63 4 6 0 8 -9 4 -22 -8 -35 29 -48 143 -11 93 -51 235 -72 255 -8
7 -9 4 -4 -9 22 -63 28 -116 23 -213 -6 -123 -30 -260 -53 -305 -14 -28 -14
-31 3 -51 10 -11 12 -17 4 -12 -11 6 -13 4 -8 -7 3 -9 0 -21 -6 -27 -14 -14
-27 -14 -27 0 0 5 5 7 10 4 6 -3 10 -2 10 4 0 19 -19 21 -32 3 -31 -45 -78
-53 -303 -54 -114 -1 -141 7 -344 99 -424 192 -488 229 -601 350 -85 90 -136
166 -189 283 -56 122 -80 170 -100 196 -57 76 -170 200 -218 239 -53 44 -58
45 -102 39 -60 -8 -88 -23 -45 -24 36 0 88 -36 121 -85 32 -48 73 -135 73
-158 0 -10 7 -25 15 -33 8 -9 15 -25 15 -36 0 -15 -5 -19 -20 -15 -21 5 -27
-7 -9 -19 7 -4 7 -10 1 -16 -15 -15 -71 48 -65 71 5 19 5 19 24 0 20 -20 35
-24 43 -11 5 8 -51 57 -66 57 -4 0 -13 6 -19 13 -17 16 -29 15 -29 -3 0 -11
-7 -14 -25 -9 -15 4 -32 1 -40 -6 -21 -17 -73 -5 -105 24 -34 32 -155 103
-199 117 -20 6 -40 15 -46 19 -5 4 -35 13 -65 19 -30 7 -70 17 -88 23 -27 8
-46 5 -108 -18 -72 -26 -75 -28 -52 -40 12 -7 44 -13 69 -14 54 0 136 -23 202
-56 60 -31 137 -104 138 -132 1 -12 2 -26 3 -31 0 -5 16 -22 35 -39 33 -28 34
-31 22 -60 -8 -19 -22 -33 -39 -37 -15 -4 -36 -15 -47 -24 -24 -22 -94 -40
-129 -34 -14 3 -33 2 -42 -1 -13 -5 -10 -11 16 -36 21 -19 30 -36 26 -46 -3
-9 -6 -24 -6 -33 0 -10 -12 -31 -27 -46 -27 -26 -31 -27 -105 -22 l-77 5 -12
-36 c-6 -21 -18 -41 -25 -45 -24 -14 -15 -23 24 -25 79 -5 112 -28 112 -79 0
-39 -27 -70 -67 -78 -94 -20 -100 -24 -107 -76 -4 -27 -11 -49 -16 -49 -15 0
-12 -57 4 -63 9 -4 18 9 28 41 l15 46 7 -59 c13 -102 17 -123 40 -203 13 -44
33 -90 48 -106 48 -53 58 -66 51 -66 -5 -1 6 -7 22 -14 17 -8 44 -27 62 -42
50 -45 76 -64 87 -64 5 0 18 -7 27 -16 10 -9 33 -18 50 -20 18 -2 37 -8 43
-13 12 -9 57 -21 67 -18 3 1 28 -17 56 -40 48 -41 203 -123 231 -123 7 0 23
-5 35 -12 12 -6 29 -13 37 -14 8 -2 35 -8 59 -14 24 -6 51 -8 58 -5 8 3 24 0
35 -6 27 -14 269 -15 306 -1 15 6 56 16 91 22 35 6 71 15 80 20 9 4 27 13 41
19 14 6 52 27 85 46 33 19 66 32 73 30 6 -2 12 0 12 5 0 11 106 51 150 56 19
2 49 5 65 7 17 2 74 29 127 60 69 39 110 56 140 58 41 3 77 19 107 47 10 10
26 12 55 6 57 -10 136 -7 152 7 10 8 14 8 14 0 0 -6 5 -10 12 -8 6 1 14 -7 17
-18 5 -16 16 -20 61 -22 62 -2 74 -13 84 -73 6 -40 22 -52 32 -26 7 18 29 27
49 20 9 -4 15 -19 15 -39 0 -28 3 -32 20 -28 12 3 17 10 13 17 -4 6 -6 24 -4
40 8 75 71 104 115 53 14 -16 26 -34 26 -39 0 -6 8 -7 18 -3 46 20 61 18 72
-9 5 -14 20 -31 32 -37 13 -6 36 -29 53 -52 24 -34 30 -38 33 -23 2 10 0 21
-5 25 -6 3 -13 36 -16 73 -6 64 -5 69 20 92 20 19 34 24 57 19 35 -6 81 -32
72 -40 -8 -9 56 -94 68 -90 6 2 10 21 9 41 -4 55 11 80 63 111 35 20 51 25 63
18 18 -12 105 28 115 52 12 31 57 17 108 -35 27 -27 55 -50 63 -50 18 0 45
-51 45 -84 0 -20 9 -29 42 -45 48 -22 54 -21 40 6 -50 96 -53 129 -14 149 12
6 33 21 46 33 26 24 73 28 101 7 13 -9 27 -11 42 -5 21 8 27 5 24 -13 -1 -11
80 -73 124 -96 100 -50 456 -152 530 -152 14 0 25 -4 25 -10 0 -5 -6 -10 -14
-10 -7 0 -26 -6 -40 -14 -19 -10 -23 -15 -13 -19 27 -10 112 -21 159 -20 47 1
48 0 42 -25 -4 -15 -7 -27 -8 -28 -1 0 -44 -18 -96 -39 -52 -20 -131 -54 -175
-75 -44 -21 -111 -52 -149 -69 -38 -17 -104 -53 -146 -80 -41 -27 -91 -56
-110 -64 -19 -8 -53 -32 -76 -54 -23 -21 -61 -54 -85 -73 -23 -19 -56 -47 -72
-63 -16 -15 -38 -32 -50 -38 -30 -17 -155 -30 -302 -33 -144 -3 -245 -14 -245
-26 0 -5 25 -14 55 -20 30 -6 57 -15 60 -20 7 -11 -26 -29 -57 -32 -13 -1 47
-4 132 -8 96 -4 165 -11 182 -19 31 -16 33 -43 5 -68 -15 -15 -52 -17 -276
-19 -235 -1 -309 -7 -456 -34 -27 -5 -90 -14 -140 -20 -99 -12 -120 -17 -278
-62 -94 -27 -111 -29 -132 -18 -20 11 -22 16 -13 27 26 31 230 116 331 138 22
4 26 9 22 28 -5 19 0 26 27 39 28 13 30 17 15 23 -26 11 -416 -121 -480 -162
-64 -41 -120 -50 -184 -29 -70 22 -486 119 -568 132 -22 3 -48 8 -57 11 -10 2
-18 -1 -18 -7 0 -6 4 -9 9 -6 5 3 14 -1 21 -9 7 -8 9 -15 4 -15 -4 0 1 -6 11
-14 11 -8 26 -12 35 -9 12 3 11 2 -2 -6 -11 -8 -25 -8 -42 -1 -18 6 -26 6 -26
-1 0 -7 -10 -9 -24 -5 -14 3 -69 11 -123 16 -93 10 -114 13 -173 25 -14 3 -83
9 -155 15 -71 5 -162 18 -201 28 -40 11 -112 20 -160 21 -101 3 -123 13 -73
35 58 26 457 9 689 -29 33 -5 32 -4 -7 9 -23 7 -72 19 -109 26 -37 7 -79 19
-93 27 -25 13 -23 14 24 9 48 -5 48 -5 -12 9 -35 8 -84 16 -110 18 -27 2 -55
6 -63 10 -152 58 -365 99 -345 67 6 -10 4 -12 -11 -6 -46 19 -82 26 -141 27
-54 1 -65 5 -78 25 -10 15 -11 24 -4 24 6 0 13 -9 16 -20 5 -20 15 -25 26 -14
10 10 -36 55 -51 49 -8 -3 -26 5 -42 17 -15 13 -36 29 -46 36 -11 7 1 3 24 -9
24 -11 46 -18 49 -16 13 14 -31 52 -102 89 -44 22 -101 56 -127 74 -26 18 -79
49 -117 69 -78 39 -201 152 -201 184 0 6 -5 11 -10 11 -6 0 -48 36 -93 81 -45
44 -77 79 -72 78 28 -5 24 5 -18 46 -25 25 -55 66 -67 90 -15 30 -33 50 -55
61 -19 9 -37 24 -40 35 -9 27 -76 79 -102 79 -12 0 -24 4 -27 9 -3 4 -32 16
-65 25 -32 9 -64 23 -71 31 -7 8 -16 15 -21 15 -14 0 -48 33 -43 41 2 5 -7 16
-21 25 -13 9 -22 20 -19 25 3 5 -6 13 -20 19 -15 5 -25 14 -24 20 2 6 -17 22
-41 35 -25 13 -47 28 -50 33 -7 11 -33 20 -86 28 -22 3 -44 9 -50 12 -5 3 -25
5 -43 3 -23 -2 -32 1 -28 8 9 13 9 13 -32 2 -17 -5 -32 -6 -32 -1 0 4 -12 5
-27 1 -26 -8 -89 9 -118 29 -19 14 -117 30 -184 30 -60 0 -70 -3 -90 -26 -28
-32 -22 -69 12 -78 16 -4 27 -17 34 -41 12 -37 4 -45 -21 -20 -8 8 -17 15 -21
15 -10 0 -35 28 -35 39 0 6 -6 11 -13 11 -13 0 -42 47 -39 63 1 4 -5 7 -13 7
-8 0 -15 5 -15 11 0 5 -4 7 -10 4 -5 -3 -10 -4 -10 -1 0 2 -3 11 -6 20 -5 12
0 16 19 16 14 0 29 5 32 10 4 6 -6 10 -21 10 -22 0 -25 3 -16 12 7 7 12 20 12
30 0 19 25 25 35 8 3 -6 -1 -7 -9 -4 -9 3 -16 2 -16 -4 0 -6 8 -9 18 -7 9 2
32 4 51 4 l34 1 -37 25 c-39 27 -56 31 -56 15 0 -6 -8 -2 -18 7 -10 10 -14 21
-10 24 13 9 6 78 -7 73 -11 -5 -13 41 -2 53 16 15 5 38 -35 76 -56 53 -88 96
-82 111 11 28 74 8 74 -25 0 -8 10 -9 31 -5 36 7 59 27 60 53 0 15 2 14 9 -4
14 -35 23 -27 18 17 -2 22 0 40 5 40 4 0 5 5 2 10 -4 6 -15 8 -26 5 -32 -10
-21 5 12 17 39 13 18 31 -26 22 -27 -6 -28 -5 -16 10 15 18 1 22 -16 5 -6 -6
-17 -9 -25 -6 -7 3 3 11 25 21 20 9 37 19 37 22 0 3 -4 3 -8 0 -4 -2 -14 -1
-22 4 -17 11 -1 53 40 101 16 19 40 46 52 62 13 15 48 53 79 85 31 32 68 77
84 100 15 23 31 42 35 42 4 0 24 16 44 36 30 29 39 34 52 23 19 -16 30 -4 14
16 -15 17 -7 19 21 5 23 -13 25 -3 2 22 -11 12 -12 18 -3 18 6 0 10 6 7 13 -3
7 8 22 24 33 30 20 55 66 45 83 -4 5 7 18 23 27 17 10 28 21 25 26 -3 4 2 5
10 2 21 -8 20 -13 -6 -24 -16 -6 -18 -9 -7 -9 17 -1 35 16 39 34 6 25 13 34
23 28 6 -3 7 -1 3 6 -9 14 -30 9 -32 -7 -3 -22 -4 -23 -14 -17 -7 4 -8 11 -1
18 5 7 11 16 13 22 1 5 6 9 11 8 4 -2 7 4 7 13 0 8 3 13 8 10 4 -2 16 2 27 10
12 9 14 14 5 14 -9 0 -8 6 6 19 18 18 20 18 33 3 13 -16 13 -16 8 1 -4 10 -1
20 6 23 7 2 13 14 14 25 2 17 -1 18 -12 9 -8 -7 -12 -17 -8 -24 3 -6 0 -5 -8
3 -11 10 -11 15 -1 18 6 3 10 8 7 13 -3 4 4 10 15 13 11 3 18 1 14 -4 -10 -17
7 -9 34 16 15 14 22 25 17 25 -6 0 -11 12 -11 28 -1 15 1 21 3 15 3 -7 9 -13
14 -13 6 0 7 5 3 12 -4 7 -3 8 4 4 6 -4 8 -14 5 -24 -3 -9 5 -4 19 12 19 20
27 24 31 15 3 -8 6 -4 6 9 1 25 1 25 -32 13 -20 -8 -23 -6 -22 10 1 10 5 22
10 26 4 5 5 3 2 -3 -4 -7 0 -15 8 -18 12 -4 14 0 9 19 -5 19 -1 27 14 32 12 5
22 13 24 18 2 6 11 10 20 9 13 0 15 3 7 12 -8 9 -5 11 11 7 12 -3 19 -11 16
-19 -3 -7 0 -11 7 -8 20 7 16 43 -5 39 -23 -5 -12 22 12 30 11 3 22 15 25 26
4 10 13 19 21 19 16 0 29 9 74 50 15 14 33 24 40 22 7 -3 10 0 7 5 -3 5 3 15
15 22 16 10 19 10 13 -1 -4 -7 5 2 20 20 14 17 36 37 48 44 l22 11 -20 -23
c-18 -21 -18 -22 -2 -13 10 5 24 21 31 34 9 18 18 23 39 21 15 -2 26 1 25 6
-2 6 1 9 5 9 5 -1 13 6 18 16 6 9 16 17 24 17 7 0 15 4 17 9 2 5 10 11 18 13
8 2 17 5 20 8 3 3 46 26 95 50 50 25 95 50 100 56 13 16 97 60 112 59 6 0 15
-3 19 -7 13 -14 22 -9 28 17 4 14 13 25 21 25 8 0 20 10 26 22 l12 22 17 -21
17 -21 59 25 c32 13 71 24 87 24 30 0 134 44 157 67 8 9 37 30 65 48 27 17 63
46 79 63 17 17 37 31 47 31 9 0 27 11 41 24 25 26 117 76 138 76 6 0 28 14 48
31 96 79 321 150 677 214 50 9 145 30 212 46 97 23 144 29 233 29 131 0 269
14 400 41 183 38 336 50 695 55 193 3 351 7 353 8 1 2 28 -1 60 -5 31 -4 83
-9 115 -11z m621 -18 c43 -5 83 -7 89 -3 6 3 7 1 4 -5 -4 -6 21 -21 63 -38 39
-15 68 -29 66 -32 -3 -2 -44 8 -93 22 -48 14 -128 31 -178 37 -109 14 -115 15
-115 30 0 8 13 10 43 5 23 -3 78 -10 121 -16z m177 -21 c58 -20 54 -28 -6 -14
-31 8 -60 16 -63 19 -9 10 33 7 69 -5z m189 -74 c9 5 11 4 6 -3 -4 -7 -1 -12
7 -12 8 0 20 -7 27 -15 11 -13 8 -13 -21 -4 -19 6 -47 16 -64 22 l-29 11 24 6
c14 4 28 2 31 -3 4 -5 12 -6 19 -2z m1070 -575 c0 -5 -2 -10 -4 -10 -3 0 -8 5
-11 10 -3 6 -1 10 4 10 6 0 11 -4 11 -10z m317 -356 c-3 -3 -12 -4 -19 -1 -8
3 -5 6 6 6 11 1 17 -2 13 -5z m36 -18 c-4 -6 1 -5 10 3 13 11 17 11 17 1 0 -8
3 -10 7 -7 8 9 32 -24 33 -44 0 -9 9 -26 20 -39 22 -26 26 -40 9 -40 -5 0 -7
-4 -4 -10 3 -5 -1 -10 -9 -10 -21 0 -30 18 -16 35 8 10 9 15 2 15 -6 0 -14 9
-17 20 -4 11 -11 18 -16 15 -5 -4 -9 1 -9 10 0 8 -8 18 -17 22 -41 14 -53 40
-19 40 8 0 12 -5 9 -11z m696 -267 l33 -44 -49 51 c-26 28 -77 84 -112 125
l-63 74 79 -81 c43 -44 93 -100 112 -125z m-573 96 c10 -8 15 -15 9 -15 -5 0
-3 -5 5 -10 11 -7 7 -10 -17 -10 -18 0 -33 4 -33 9 0 5 -3 16 -6 25 -8 20 16
21 42 1z m38 -73 c3 -5 0 -9 -7 -9 -7 0 -21 -4 -32 -9 -17 -7 -18 -6 -5 9 16
18 36 22 44 9z m-7124 -194 c0 -18 -2 -20 -9 -8 -6 8 -7 18 -5 22 9 14 14 9
14 -14z m-263 -350 c-3 -8 -6 -5 -6 6 -1 11 2 17 5 13 3 -3 4 -12 1 -19z
m8021 -132 c-7 -8 -15 -12 -17 -11 -5 6 10 25 20 25 5 0 4 -6 -3 -14z m3 -15
c7 11 9 11 9 -3 0 -10 6 -18 13 -18 7 0 5 -5 -5 -11 -21 -12 -68 -1 -68 15 0
21 12 27 27 14 11 -9 17 -9 24 3z m139 -107 c0 -8 -4 -12 -10 -9 -5 3 -10 10
-10 16 0 5 5 9 10 9 6 0 10 -7 10 -16z m-565 -404 c3 -5 2 -10 -3 -10 -6 0
-13 -12 -18 -27 l-7 -28 -7 30 -8 30 -1 -28 c0 -16 -6 -27 -12 -25 -12 4 -12
7 -3 43 4 18 13 25 29 25 13 0 27 -4 30 -10z m200 -30 c3 -5 -3 -10 -15 -10
-12 0 -18 5 -15 10 3 6 10 10 15 10 5 0 12 -4 15 -10z m-8270 -90 c-3 -5 -14
-10 -23 -9 -14 0 -13 2 3 9 27 11 27 11 20 0z m8111 -23 c3 -3 -3 -10 -13 -15
-13 -7 -23 -5 -36 8 -17 17 -17 18 13 15 17 -1 33 -5 36 -8z m-5490 -310 c87
-63 142 -97 156 -97 6 0 49 -24 96 -52 79 -50 83 -54 78 -83 -3 -16 -7 -48 -8
-70 -3 -38 -1 -41 37 -60 45 -22 101 -24 160 -5 l41 13 116 -79 c65 -43 117
-82 118 -86 0 -15 -52 -41 -118 -59 -133 -37 -350 -17 -443 40 -25 15 -68 32
-95 36 -27 4 -61 14 -77 23 -69 41 -133 187 -152 347 -7 61 -16 117 -20 126
-7 18 18 49 40 49 7 0 39 -19 71 -43z m7061 -154 c82 -52 117 -82 101 -87 -98
-31 -140 -36 -143 -16 -2 8 -10 43 -18 78 -8 34 -11 62 -6 62 5 0 35 -16 66
-37z m-2359 -22 c6 -43 -9 -73 -65 -132 -52 -55 -160 -127 -215 -144 -13 -4
-56 -23 -97 -42 l-74 -34 -297 -6 c-229 -5 -299 -3 -304 6 -5 7 -6 15 -3 18
12 11 377 153 396 153 12 0 21 -7 21 -15 0 -8 4 -15 8 -15 5 0 19 -9 32 -20
20 -17 25 -18 49 -6 37 20 58 46 73 90 13 38 16 40 118 77 155 56 302 98 330
96 18 -1 26 -9 28 -26z m146 -23 c-50 -72 -65 -88 -81 -88 -19 0 8 47 58 101
52 56 65 48 23 -13z m2850 -72 c16 -57 -6 -124 -50 -152 -32 -21 -72 -7 -145
50 -58 46 -66 66 -45 117 6 13 55 34 100 43 5 1 37 -7 72 -18 45 -14 64 -25
68 -40z m-4687 -68 c-3 -7 -5 -2 -5 12 0 14 2 19 5 13 2 -7 2 -19 0 -25z
m1684 5 c-30 -55 -239 -261 -309 -304 -30 -19 -240 -72 -287 -72 -16 0 -55 5
-85 12 -30 6 -118 18 -194 27 -151 16 -170 22 -157 43 7 11 20 12 76 1 78 -15
328 -8 385 10 19 6 71 18 115 25 117 21 130 24 162 37 52 23 142 83 140 94 -1
8 147 141 161 143 2 1 -1 -7 -7 -16z m-4673 -225 c2 -5 9 -8 15 -8 7 0 34 -16
61 -35 27 -19 55 -35 63 -35 7 0 13 -4 13 -8 0 -16 154 -44 244 -45 56 0 82
-3 66 -8 -24 -7 -24 -7 5 -9 l30 -1 -35 -13 c-36 -12 -124 -20 -240 -19 -72 0
-187 39 -182 62 1 7 -1 10 -6 7 -4 -2 -21 6 -38 20 -16 14 -22 22 -14 18 13
-7 13 -5 1 9 -7 9 -17 14 -22 11 -5 -3 -6 3 -2 12 5 14 3 16 -11 11 -11 -4
-15 -3 -11 4 4 6 -1 19 -11 30 -9 10 -14 19 -10 19 3 0 -1 12 -11 28 -17 26
-17 26 0 13 16 -12 17 -12 11 5 -5 12 9 5 37 -21 24 -22 45 -43 47 -47z m6120
-3 c4 -26 -58 -53 -207 -90 -128 -32 -165 -47 -215 -87 -47 -38 -159 -72 -187
-58 -29 16 -49 12 -185 -32 -127 -41 -131 -41 -259 -39 -108 1 -132 4 -142 18
-11 14 -10 20 4 35 9 10 24 18 35 18 54 0 330 71 593 153 192 59 424 107 510
104 42 -2 50 -5 53 -22z m-8032 -264 c17 -16 51 -39 75 -51 61 -31 259 -233
259 -264 0 -13 14 -40 30 -61 64 -81 68 -92 66 -195 -2 -52 -6 -134 -11 -181
l-8 -86 -95 -16 -95 -16 -32 25 c-17 13 -40 24 -49 24 -9 0 -15 3 -13 8 9 16
-31 69 -75 97 -51 33 -52 36 -73 149 -7 43 -20 85 -28 95 -10 11 -15 43 -16
100 -1 46 -4 87 -6 91 -2 3 -7 72 -11 152 l-7 146 24 5 c13 2 26 5 29 6 3 0
19 -12 36 -28z m6402 -46 c-3 -3 -21 -10 -39 -15 -31 -9 -32 -8 -15 5 18 14
66 22 54 10z m-748 -319 c0 -3 -4 -8 -10 -11 -5 -3 -10 -1 -10 4 0 6 5 11 10
11 6 0 10 -2 10 -4z m-4218 -243 c18 -5 22 -53 5 -53 -5 0 -7 7 -3 15 3 10 -5
20 -24 30 -17 9 -30 11 -30 6 0 -5 7 -12 16 -15 9 -3 14 -12 11 -20 -3 -8 5
-18 19 -25 29 -13 33 -35 4 -26 -12 4 -20 2 -20 -5 0 -8 -6 -8 -20 0 -11 6
-25 8 -30 5 -6 -3 -10 5 -10 18 0 16 -8 28 -25 35 -14 6 -25 16 -25 22 0 6 5
8 11 4 6 -3 15 -1 19 7 7 10 12 10 23 1 12 -10 16 -9 21 4 4 11 12 14 24 9 9
-4 25 -10 34 -12z m-737 -14 c4 -5 11 -7 16 -4 5 4 15 3 22 -2 6 -4 15 -8 19
-8 28 0 108 -93 122 -141 6 -20 2 -21 -96 -27 -57 -4 -134 -10 -172 -14 -62
-5 -69 -4 -63 10 3 9 2 19 -3 22 -14 8 57 137 84 155 28 18 63 23 71 9z m620
-37 c-3 -3 -11 0 -18 7 -9 10 -8 11 6 5 10 -3 15 -9 12 -12z m745 -136 c14 -3
28 -5 33 -5 4 -1 7 -5 7 -9 0 -5 -26 -5 -57 0 -32 4 -98 13 -148 18 l-90 9
115 -5 c63 -2 126 -6 140 -8z m-618 -12 c9 -3 18 -15 20 -27 2 -18 14 -25 61
-36 49 -11 55 -15 41 -26 -15 -11 -15 -13 7 -19 47 -13 -4 -24 -146 -31 -97
-5 -155 -3 -184 5 -33 9 -88 9 -223 0 -136 -8 -184 -8 -194 1 -9 7 -52 11
-118 10 -94 -2 -104 0 -108 17 -4 13 3 24 22 35 22 14 81 19 296 28 243 10
324 21 324 41 0 4 10 9 23 11 24 5 151 -1 179 -9z m3180 -1125 c70 -15 146
-49 189 -85 19 -16 43 -34 53 -40 11 -6 28 -26 38 -45 11 -22 32 -41 56 -52
47 -21 142 -134 142 -169 0 -13 -9 -34 -20 -46 -20 -22 -20 -23 -3 -52 22 -37
39 -33 35 9 -1 18 3 31 9 31 7 0 9 9 6 21 -5 17 -2 20 15 16 16 -5 19 -2 15
14 -3 10 -1 19 4 19 5 0 9 -5 9 -11 0 -5 4 -7 10 -4 12 7 24 -4 130 -120 46
-49 97 -113 115 -140 18 -28 40 -57 50 -65 27 -22 49 -71 36 -80 -8 -4 -9 -15
-3 -31 17 -47 8 -180 -16 -234 -13 -27 -26 -45 -30 -40 -8 11 -37 13 -47 3
-12 -12 -35 3 -35 23 0 10 -9 25 -21 33 -12 8 -18 19 -15 25 4 5 2 12 -2 15
-13 8 -22 -97 -15 -173 6 -61 5 -65 -10 -52 -15 12 -17 11 -17 -3 0 -15 -13
-21 -35 -16 -5 1 -33 2 -62 1 -41 -1 -57 4 -81 24 -17 14 -37 25 -45 25 -21 0
-90 67 -83 79 7 11 -35 149 -69 226 -12 28 -25 67 -29 88 -7 37 0 44 37 38 4
0 7 8 7 19 0 11 5 17 13 15 21 -9 41 51 28 87 -14 41 -13 47 4 24 13 -17 14
-15 20 18 4 21 13 36 21 36 18 0 18 34 1 49 -11 8 -17 5 -27 -14 -7 -14 -17
-25 -22 -25 -4 0 -8 -7 -8 -15 0 -8 -4 -15 -10 -15 -5 0 -10 -6 -10 -14 0 -16
-50 -76 -64 -76 -5 0 -15 -8 -22 -17 -9 -14 -28 -18 -76 -20 -54 -1 -102 -5
-227 -17 -27 -3 -77 -43 -66 -54 3 -4 78 -9 165 -12 157 -5 159 -5 187 -32 21
-20 30 -39 31 -68 2 -22 9 -57 16 -77 7 -21 11 -44 8 -51 -2 -7 2 -21 10 -30
7 -9 13 -24 12 -32 -1 -8 -2 -22 -3 -31 -2 -30 -71 -43 -196 -35 -64 3 -136
11 -161 16 -64 14 -89 5 -118 -44 -21 -36 -30 -43 -58 -44 -45 -2 -98 17 -98
34 0 8 -7 14 -15 14 -8 0 -18 12 -21 28 -4 15 -14 35 -22 45 -14 16 -26 60
-38 147 -8 53 8 105 32 105 10 0 28 9 39 21 22 24 58 38 95 39 16 0 29 9 37
25 14 29 9 38 -11 21 -11 -9 -24 -9 -55 -1 -38 10 -41 14 -57 68 -8 31 -17 63
-20 70 -7 24 -26 8 -43 -37 -19 -47 -34 -61 -70 -61 -13 0 -29 -7 -35 -15 -6
-8 -22 -17 -36 -19 -14 -3 -25 -5 -25 -7 0 -7 -51 -5 -56 2 -3 5 -27 -7 -55
-26 -56 -40 -70 -43 -77 -15 -3 11 -13 20 -22 20 -12 0 -15 6 -10 19 5 15 0
21 -26 26 l-31 7 27 28 c27 28 85 135 85 158 0 6 5 12 11 12 5 0 8 4 5 9 -13
20 36 141 89 221 30 46 55 86 55 88 0 3 18 29 40 59 38 50 60 66 60 43 0 -5
-7 -10 -17 -10 -9 0 -13 -3 -10 -6 4 -4 -6 -18 -21 -30 -15 -13 -22 -24 -17
-24 20 0 77 60 71 75 -7 18 46 48 69 39 26 -10 45 -60 45 -118 0 -30 4 -57 9
-60 4 -3 21 34 36 82 15 48 31 97 36 110 11 27 54 45 91 38 15 -3 30 -1 33 4
8 13 92 13 157 -1z m1480 -712 c45 -23 79 -58 61 -64 -7 -3 -13 -13 -13 -23 0
-19 -26 -30 -71 -30 -34 0 -74 32 -95 76 -16 33 -16 36 1 48 24 18 72 15 117
-7z m-2140 -89 c-19 -19 -14 -26 15 -22 15 1 34 -1 43 -6 9 -5 30 -11 46 -14
38 -7 73 -52 75 -96 1 -19 3 -39 4 -45 2 -5 4 -14 5 -20 4 -20 0 -121 -6 -148
-3 -15 -13 -31 -23 -36 -24 -13 -66 -7 -86 13 -9 9 -20 16 -25 16 -5 0 -64
-24 -132 -54 -143 -62 -198 -76 -198 -50 0 13 -3 14 -15 4 -16 -13 -138 -10
-152 4 -4 4 8 37 27 73 38 70 79 110 98 91 7 -7 18 -5 36 8 14 11 26 22 26 26
0 4 11 32 25 62 14 30 25 58 25 63 1 14 87 77 152 110 69 36 78 39 60 21z
m1618 -277 c0 -4 14 -15 30 -24 30 -18 30 -18 40 7 8 21 15 25 38 23 16 -2 42
-13 57 -25 16 -13 38 -24 49 -27 12 -2 32 -6 46 -8 14 -3 70 -14 125 -25 55
-11 144 -26 198 -32 53 -7 97 -15 97 -19 0 -3 -15 -13 -32 -21 -18 -7 -46 -28
-63 -45 -16 -18 -39 -37 -50 -43 -39 -21 -8 -20 105 5 63 13 129 26 145 28 17
2 50 7 74 11 l44 7 -7 -39 c-16 -85 -139 -181 -245 -192 -87 -8 -135 5 -183
49 -24 22 -36 37 -28 33 13 -7 13 -5 1 9 -17 21 -11 22 -51 -8 -23 -17 -37
-22 -44 -15 -5 5 -16 10 -23 10 -7 0 -34 10 -59 22 -37 17 -50 19 -65 10 -22
-14 -58 -15 -78 -3 -9 6 -22 6 -32 0 -11 -5 -19 -5 -21 1 -2 5 -13 11 -26 13
-25 4 -57 42 -47 57 3 5 -6 19 -20 32 -14 12 -23 28 -21 35 3 7 0 13 -6 13
-13 0 -6 77 13 139 8 26 16 38 25 34 8 -3 14 -8 14 -12z m-5370 -111 c27 0 60
-39 60 -72 0 -20 -8 -31 -30 -43 -28 -14 -35 -14 -92 5 -34 11 -70 20 -80 20
-11 0 -17 4 -13 9 3 6 -4 15 -16 21 -27 15 -13 31 30 35 17 1 36 7 43 12 16
14 49 22 66 17 8 -2 22 -4 32 -4z m6619 0 c17 0 11 -16 -47 -117 -26 -46 -52
-83 -59 -83 -7 0 -10 -7 -7 -15 4 -9 -14 -34 -45 -65 -52 -52 -80 -66 -61 -31
16 30 12 36 -10 16 -20 -18 -21 -18 -14 0 5 13 4 16 -5 11 -8 -6 -7 2 3 22 9
17 13 37 10 45 -3 8 -1 18 5 22 7 4 9 -1 5 -12 -4 -13 0 -11 16 7 12 14 29 24
36 22 8 -2 14 2 14 8 0 6 -5 8 -11 4 -7 -4 -10 -1 -7 7 3 8 10 14 16 14 5 0
14 4 19 9 5 5 3 6 -4 2 -16 -9 -16 -1 -3 24 9 16 8 18 -6 13 -14 -5 -16 -1
-12 20 4 20 0 28 -14 33 -11 3 -17 9 -13 12 12 12 139 41 160 37 11 -3 26 -5
34 -5z m-3012 -403 c-25 -11 -19 -12 56 -12 47 0 88 3 92 7 11 10 247 -3 295
-17 25 -7 62 -16 83 -20 20 -3 53 -19 71 -35 78 -69 120 -70 109 -3 -5 28 -3
34 7 28 7 -4 16 -2 21 6 11 19 45 -13 53 -52 5 -29 6 -29 73 -30 38 0 86 -4
108 -9 35 -7 37 -9 18 -15 -13 -4 -20 -12 -17 -17 4 -6 -3 -5 -14 1 -14 7 -23
8 -27 1 -4 -6 -10 -8 -15 -5 -5 3 -18 1 -28 -4 -13 -7 -23 -6 -31 2 -9 9 -14
9 -20 -2 -7 -10 -41 -15 -127 -18 -66 -2 -126 -6 -135 -8 -9 -3 -24 1 -32 10
-18 18 -28 19 -25 4 3 -13 -11 -15 -197 -23 -77 -3 -165 -2 -196 2 -30 5 -62
5 -70 0 -8 -4 -27 -13 -44 -20 -23 -8 -26 -12 -12 -15 9 -3 17 -9 17 -15 0 -6
6 -5 16 3 13 11 14 9 9 -14 -10 -38 13 -35 26 3 6 16 15 27 20 24 6 -3 16 0
24 6 16 14 18 10 9 -14 -3 -9 -10 -14 -14 -11 -10 6 -35 -24 -26 -32 4 -4 11
-1 16 7 7 10 10 11 10 3 0 -22 18 -14 32 15 15 30 21 30 123 18 73 -10 163
-32 179 -45 6 -5 34 -13 61 -17 28 -4 43 -10 33 -12 -14 -3 -34 -31 -26 -37 2
-1 17 -10 33 -19 l30 -17 -36 6 c-34 5 -36 3 -36 -19 0 -22 2 -24 36 -19 30 5
34 3 24 -8 -7 -7 -13 -16 -13 -20 0 -10 53 -6 61 4 3 5 9 0 11 -11 4 -14 2
-19 -7 -16 -8 3 -16 -9 -23 -33 l-10 -38 -1 38 c-1 20 -5 37 -11 37 -5 0 -10
-4 -10 -10 0 -5 -6 -7 -14 -4 -10 4 -12 -1 -9 -19 4 -22 2 -24 -34 -23 -25 1
-47 9 -63 24 -23 22 -23 22 -4 36 17 13 17 15 2 21 -9 4 -25 2 -37 -4 -26 -15
-31 -14 -25 4 3 8 9 14 12 13 19 -2 32 3 32 13 0 6 -7 9 -14 6 -10 -4 -13 -1
-9 8 4 12 -4 15 -36 13 -22 -1 -38 -5 -36 -8 3 -4 -4 -10 -15 -13 -13 -3 -20
0 -20 9 0 19 -16 18 -24 -2 -4 -9 -9 -14 -12 -11 -4 3 3 18 15 33 15 19 21 22
21 10 0 -9 5 -16 10 -16 12 0 13 10 1 29 -8 12 -13 12 -35 -3 -30 -19 -32 -15
-9 21 17 25 17 26 -7 18 -14 -4 -30 -15 -37 -24 -11 -15 -12 -14 -13 2 0 24
-17 21 -23 -4 -4 -16 -11 -20 -23 -15 -12 5 -25 -2 -40 -21 -18 -21 -23 -24
-24 -11 0 9 8 21 17 27 10 5 14 13 10 18 -5 4 -24 -10 -43 -32 -19 -22 -31
-31 -25 -19 5 11 17 26 25 34 9 7 16 16 16 21 0 17 -26 9 -48 -13 -22 -24 -22
-25 -22 -58 0 -13 -5 -18 -15 -14 -9 4 -15 0 -15 -9 0 -8 6 -17 13 -20 9 -3 7
-10 -5 -23 -10 -10 -18 -13 -18 -6 0 18 -50 -8 -51 -27 0 -11 -3 -9 -9 5 -10
26 -26 38 -34 25 -3 -5 1 -14 9 -21 8 -7 15 -17 15 -23 0 -6 -13 2 -30 18 -20
19 -30 24 -30 14 0 -8 5 -20 12 -27 22 -22 -5 -13 -29 10 -23 21 -23 21 -23 1
0 -11 7 -26 15 -33 8 -7 15 -16 15 -21 0 -5 -7 -6 -15 -3 -8 4 -15 2 -15 -4 0
-11 -37 -25 -59 -22 -7 1 -10 -3 -7 -8 3 -5 -4 -12 -17 -16 -35 -9 -47 -7 -47
9 0 18 -27 20 -33 3 -2 -7 -7 -11 -10 -8 -3 3 7 20 24 38 33 36 27 42 -11 12
-39 -30 -45 -24 -15 16 l28 36 -24 -7 c-13 -4 -32 -14 -41 -23 -12 -9 -18 -11
-18 -4 0 19 -17 14 -41 -10 l-21 -23 7 23 c4 13 2 22 -4 22 -6 0 -11 -4 -11
-10 0 -5 -8 -6 -17 -3 -13 5 -15 3 -9 -12 9 -24 -3 -13 -18 17 -15 30 -32 33
-39 7 -3 -13 -10 -18 -17 -14 -9 6 -9 10 1 16 12 7 11 11 -3 26 -17 16 -18 16
-18 0 0 -9 -5 -17 -11 -17 -6 0 -8 8 -4 19 4 13 0 23 -12 30 -10 5 -15 12 -12
16 4 3 21 -6 38 -21 39 -33 52 -25 20 13 -30 35 -85 40 -82 8 1 -20 1 -20 -12
-1 -13 17 -12 21 3 32 9 7 14 16 10 20 -5 4 -16 0 -26 -9 -11 -10 -22 -13 -28
-8 -5 5 -18 11 -29 14 -16 3 -13 6 13 12 21 5 31 13 30 23 -2 10 9 18 30 24
26 7 31 12 23 22 -17 20 17 44 72 49 35 4 49 1 55 -9 7 -12 14 -13 38 -3 16 6
39 11 50 11 26 -2 38 37 17 56 -18 18 -16 30 7 37 27 9 30 85 3 85 -15 0 -16
2 -3 10 13 9 13 10 0 10 -21 0 -134 -37 -170 -55 -16 -8 -33 -16 -37 -16 -5
-1 -23 -7 -41 -14 -50 -21 -190 -57 -203 -53 -20 7 52 46 106 58 27 6 54 15
61 21 20 17 247 87 379 118 201 46 205 47 285 49 67 1 72 0 47 -11z m-1569
-92 c-2 -3 -30 -13 -61 -24 -50 -16 -57 -16 -57 -3 0 8 2 13 5 10 3 -3 25 0
48 8 44 13 74 18 65 9z m-394 -46 c-3 -6 -2 -14 4 -18 19 -11 -3 -32 -44 -41
-43 -10 -80 -6 -164 18 l-55 16 40 8 c45 10 157 25 198 27 18 1 26 -3 21 -10z
m1526 -129 c0 -5 -5 -10 -11 -10 -5 0 -7 5 -4 10 3 6 8 10 11 10 2 0 4 -4 4
-10z m985 -80 c3 -5 -1 -10 -10 -10 -9 0 -13 5 -10 10 3 6 8 10 10 10 2 0 7
-4 10 -10z m-375 -44 c0 -11 -19 -15 -25 -6 -3 5 1 10 9 10 9 0 16 -2 16 -4z
m844 -21 c4 -10 -1 -15 -14 -15 -23 0 -27 -18 -5 -26 13 -5 13 -8 0 -21 -20
-19 -20 -63 0 -63 8 0 15 -6 15 -13 0 -8 12 -19 26 -26 15 -6 24 -14 21 -18
-4 -3 -12 -1 -19 4 -11 8 -116 9 -145 1 -4 -1 -19 2 -32 6 -14 5 -27 4 -34 -3
-7 -7 -14 -7 -24 0 -17 14 -43 4 -43 -16 0 -12 6 -15 20 -10 12 4 20 2 20 -6
0 -9 4 -8 15 1 12 10 16 9 21 -3 3 -9 16 -14 35 -13 17 1 32 -1 35 -5 2 -4 19
-6 38 -5 19 1 32 -2 30 -5 -2 -4 11 -5 29 -4 17 2 38 -2 45 -7 6 -6 25 -8 42
-5 23 5 28 3 23 -8 -3 -10 1 -15 11 -15 9 0 19 7 22 15 4 8 10 15 16 15 5 0 7
-4 4 -8 -5 -8 75 -12 331 -15 73 -1 133 -5 133 -9 0 -4 12 -3 26 2 14 6 41 10
61 10 30 0 34 -2 23 -15 -7 -8 -27 -15 -44 -15 -18 0 -36 -4 -42 -9 -5 -5 -34
-11 -65 -13 -48 -3 -55 -1 -52 13 4 12 -2 17 -21 17 -21 0 -24 -3 -15 -14 7
-9 8 -14 1 -14 -5 0 -12 6 -15 14 -8 21 -64 25 -84 6 -10 -8 -25 -14 -34 -12
-9 1 -22 -4 -29 -13 -7 -8 -19 -15 -26 -15 -8 0 -14 -5 -14 -11 0 -6 6 -9 14
-6 8 3 20 -1 27 -9 7 -8 8 -14 3 -13 -5 1 -22 -4 -38 -12 -23 -11 -30 -11 -34
-1 -2 6 -15 12 -28 12 -14 0 -22 4 -19 10 10 16 -25 24 -38 10 -10 -10 -8 -12
5 -7 12 4 15 2 11 -9 -3 -7 -12 -14 -20 -14 -10 0 -13 -6 -8 -17 5 -15 4 -16
-6 -5 -19 18 -42 15 -37 -6 4 -15 -3 -18 -47 -20 -51 -2 -53 -1 -59 29 -3 17
-3 35 0 40 3 5 0 9 -5 9 -6 0 -20 8 -31 17 -14 13 -16 19 -7 25 16 10 -10 29
-30 21 -7 -3 -13 2 -13 11 0 9 -4 16 -9 16 -5 0 -16 3 -25 6 -13 5 -16 -1 -17
-27 l-1 -34 -10 28 c-10 29 -28 37 -28 12 0 -9 -6 -12 -17 -8 -16 6 -16 5 0
-17 21 -30 22 -41 2 -34 -9 4 -15 0 -15 -10 0 -9 5 -16 10 -16 6 0 10 -7 10
-15 0 -8 -9 -15 -19 -15 -20 0 -35 -25 -25 -41 3 -5 19 -9 36 -9 40 0 32 -9
-10 -12 -20 -1 -32 -8 -32 -16 0 -9 -7 -12 -20 -9 -11 3 -20 1 -20 -4 0 -5 -4
-9 -10 -9 -5 0 -7 6 -4 13 3 8 -3 20 -12 28 -13 11 -18 11 -21 2 -3 -7 -10
-13 -16 -13 -8 0 -7 4 1 12 17 17 15 31 -2 25 -8 -3 -17 -1 -20 6 -3 9 -8 8
-15 -3 -9 -12 -11 -11 -11 8 0 14 -6 22 -16 22 -13 0 -14 3 -5 14 10 12 8 13
-9 9 -14 -4 -20 -1 -18 8 2 8 -3 13 -10 11 -8 -1 -11 2 -7 8 3 5 3 15 -1 22
-5 7 -15 2 -32 -18 -16 -20 -20 -22 -13 -7 7 14 8 24 1 28 -5 3 -10 0 -10 -7
0 -9 -3 -9 -10 2 -9 13 -13 12 -28 -5 -24 -30 -46 -35 -75 -20 -23 12 -28 10
-52 -15 -20 -21 -26 -36 -23 -54 5 -26 -4 -32 -41 -26 -9 1 -12 -4 -7 -17 6
-17 5 -17 -8 0 -7 9 -19 17 -26 17 -12 0 -11 -7 4 -55 5 -15 4 -15 -5 3 -14
26 -29 29 -29 6 0 -11 -5 -14 -17 -9 -10 4 -38 14 -63 21 -78 24 -77 24 -56
39 10 8 15 18 12 24 -4 5 -2 12 4 16 5 3 10 1 10 -4 0 -30 62 9 74 46 4 13 1
27 -9 37 -9 9 -12 16 -7 16 5 0 15 -7 22 -15 7 -8 16 -15 21 -15 15 0 10 30
-5 36 -8 3 -12 12 -9 20 7 20 -14 17 -26 -3 -5 -10 -12 -16 -14 -13 -3 3 6 18
19 33 16 19 24 23 24 13 0 -9 5 -16 10 -16 12 0 13 10 1 28 -7 12 -14 11 -41
-3 -33 -17 -34 -10 -2 28 13 15 13 17 -1 17 -8 0 -18 6 -20 13 -4 8 -6 6 -6
-4 -1 -9 -10 -24 -21 -34 -18 -16 -20 -16 -20 -2 0 23 -20 22 -21 0 0 -15 -2
-15 -9 2 -5 11 -9 27 -9 35 1 10 2 11 6 3 8 -20 23 -15 23 8 0 16 -5 19 -22
15 l-23 -6 23 11 c12 7 23 19 23 28 1 13 2 13 6 -1 6 -24 19 -23 26 3 4 14 11
20 20 16 9 -3 23 3 33 14 9 10 22 19 27 19 6 0 3 -8 -6 -18 -21 -23 -22 -39
-2 -22 12 10 15 9 15 -4 0 -13 4 -15 19 -6 11 5 28 10 38 9 11 0 5 -7 -17 -17
-25 -11 -30 -17 -18 -19 10 -3 15 -10 11 -19 -3 -8 -1 -14 5 -14 6 0 12 4 14
9 2 4 14 12 28 16 22 7 23 6 11 -9 -12 -14 -11 -16 8 -16 13 0 25 -9 29 -21 5
-11 12 -20 17 -19 5 1 11 -3 13 -9 2 -6 -3 -8 -12 -5 -22 9 -20 -9 4 -31 26
-24 60 -27 60 -6 1 9 6 4 13 -11 17 -38 42 -23 28 15 -7 17 -7 27 -1 27 6 0
10 -9 10 -20 0 -11 5 -20 10 -20 6 0 10 5 10 11 0 5 4 7 10 4 5 -3 18 -1 29 4
14 8 21 8 24 -2 4 -9 8 -8 16 3 9 12 11 11 11 -7 0 -14 6 -23 15 -23 10 0 15
10 15 30 0 17 4 30 9 30 4 0 6 -11 3 -25 -2 -15 0 -25 7 -25 6 0 11 8 11 18 0
13 2 14 9 3 12 -18 31 -5 31 22 0 31 11 44 43 52 15 4 24 11 21 16 -3 5 2 12
11 15 8 4 15 11 14 18 -4 35 2 55 15 50 8 -3 25 0 38 7 13 7 26 13 30 14 18 1
21 18 4 31 -11 8 -15 14 -9 14 20 0 36 -29 24 -43 -14 -18 -5 -26 20 -20 15 4
18 11 13 27 -3 11 -10 25 -15 31 -23 24 -6 26 19 2 31 -30 44 -34 36 -12 -4 8
-1 15 5 15 6 0 11 5 11 11 0 5 -4 8 -9 5 -5 -3 -14 1 -21 9 -11 13 -6 15 33
15 31 0 47 -5 51 -15z m-1809 -25 c-9 -15 14 -21 35 -10 15 8 20 8 20 -1 0 -6
10 -20 23 -31 20 -18 19 -18 -15 2 -40 23 -49 18 -21 -12 22 -24 2 -23 -30 2
-45 36 -52 19 -11 -29 19 -23 22 -31 10 -31 -13 0 -13 -3 0 -27 7 -16 14 -33
14 -40 0 -6 6 -14 13 -16 7 -3 5 -6 -5 -6 -20 -1 -23 -18 -9 -40 8 -13 12 -13
28 -1 15 12 16 12 6 0 -17 -19 -16 -33 1 -27 8 3 17 1 20 -6 3 -9 8 -8 15 3 9
12 11 11 11 -7 0 -31 19 -38 29 -11 6 13 10 17 10 9 1 -7 7 -11 16 -7 10 4 15
-1 15 -14 0 -22 29 -28 31 -7 1 6 5 -7 10 -31 9 -47 28 -72 56 -72 17 -1 17
-1 1 -11 -24 -14 -23 -33 1 -26 18 4 31 -10 31 -33 0 -5 -21 -7 -47 -4 -27 3
-57 6 -68 7 -11 1 -27 9 -35 18 -19 20 -60 31 -60 16 0 -7 -5 -5 -10 3 -8 12
-10 12 -10 -5 -1 -19 -2 -19 -10 1 -14 36 -61 66 -93 60 -26 -5 -27 -5 -11 11
21 21 1 31 -23 11 -13 -10 -17 -10 -20 0 -7 20 -81 15 -105 -8 -12 -11 -24
-16 -27 -12 -3 5 -13 12 -21 15 -12 4 -11 6 3 6 20 1 21 8 5 44 -7 15 -18 25
-24 23 -7 -3 -21 4 -32 15 -12 10 -30 19 -41 19 -11 0 -23 5 -26 10 -8 13 37
31 49 20 5 -5 16 -6 25 -2 13 5 14 3 4 -10 -16 -19 -6 -30 17 -18 11 6 24 4
38 -6 12 -8 27 -12 32 -9 6 3 10 -1 10 -9 0 -20 24 -21 40 -1 7 8 19 15 28 15
8 0 12 3 9 7 -4 3 -2 12 4 20 6 7 9 22 6 34 -5 20 -5 20 14 3 25 -22 32 -14
16 19 -12 27 -25 33 -43 20 -5 -5 2 3 16 16 21 21 25 22 28 8 2 -10 7 -15 12
-12 8 5 2 45 -6 45 -3 0 -21 -7 -42 -15 l-37 -15 33 28 c34 30 42 48 17 38 -8
-3 -15 -2 -15 2 0 14 16 29 45 45 17 9 23 17 15 17 -12 0 -11 4 4 15 19 14 41
11 31 -5z m2073 10 c3 -4 20 -7 37 -9 12 -1 39 -39 48 -68 1 -5 5 -7 10 -5 4
1 7 -2 7 -8 0 -5 12 -10 27 -10 l27 0 -22 -16 c-22 -15 -22 -17 -5 -29 10 -7
21 -11 25 -9 5 3 8 -5 8 -17 0 -21 -1 -21 -25 5 -13 14 -27 26 -30 26 -9 0
-43 -38 -38 -43 3 -3 -4 -3 -16 0 -12 3 -21 8 -21 12 0 3 -13 7 -30 7 -16 1
-27 -2 -24 -7 3 -5 0 -9 -6 -9 -7 0 -9 8 -5 20 5 16 2 20 -19 20 -30 0 -43 15
-20 24 9 4 14 13 10 21 -3 8 -1 15 5 15 18 0 4 23 -15 26 -24 3 -34 16 -18 21
10 4 10 8 0 20 -11 14 -10 15 10 9 14 -5 22 -3 22 4 0 9 47 8 58 0z m-918 -4
c0 -2 -9 -6 -20 -9 -11 -3 -18 -1 -14 4 5 9 34 13 34 5z m450 -36 c0 -5 -8
-10 -17 -10 -15 0 -16 2 -3 10 19 12 20 12 20 0z m-742 -40 c-7 -11 -19 -22
-28 -25 -8 -4 -4 5 9 19 29 31 36 33 19 6z m72 10 c0 -5 -5 -10 -11 -10 -5 0
-7 5 -4 10 3 6 8 10 11 10 2 0 4 -4 4 -10z m-138 -32 c-8 -8 -9 -4 -5 13 4 13
8 18 11 10 2 -7 -1 -18 -6 -23z m1591 10 c5 -20 4 -21 -6 -7 -7 9 -19 14 -27
12 -13 -4 -13 -3 0 6 22 15 27 14 33 -11z m-2509 -2 c-21 -15 -30 -14 -19 3 3
6 14 11 23 11 13 0 13 -2 -4 -14z m2096 4 c0 -5 -2 -10 -4 -10 -3 0 -8 5 -11
10 -3 6 -1 10 4 10 6 0 11 -4 11 -10z m338 -25 c-3 -3 -9 2 -12 12 -6 14 -5
15 5 6 7 -7 10 -15 7 -18z m-787 -8 c-10 -9 -11 -8 -5 6 3 10 9 15 12 12 3 -3
0 -11 -7 -18z m1169 1 c-21 -23 -75 -35 -64 -15 5 8 3 8 -7 0 -17 -17 -26 -16
-26 2 0 8 4 12 9 9 4 -3 8 -1 8 5 0 9 9 9 50 -1 8 -1 14 2 13 7 -1 6 7 11 17
12 19 2 19 1 0 -19z m-2019 -25 c13 -16 12 -17 -3 -4 -10 7 -18 15 -18 17 0 8
8 3 21 -13z m1824 7 c-4 -6 6 -7 25 -4 32 7 40 -5 16 -25 -11 -9 -15 -9 -19 1
-3 10 -9 10 -25 1 -17 -10 -21 -9 -25 7 -4 17 4 27 26 29 5 1 5 -3 2 -9z
m-1195 -15 c0 -8 3 -15 8 -15 4 0 12 -11 18 -24 9 -20 9 -26 -2 -30 -7 -3 -11
0 -8 8 5 14 -33 60 -56 69 -8 3 -3 6 13 6 18 1 27 -4 27 -14z m1009 -22 c3 -2
-11 -2 -29 0 -19 3 -36 9 -38 15 -3 9 5 8 30 0 18 -6 35 -13 37 -15z m67 9 c0
-10 -6 -19 -13 -19 -7 0 -10 4 -7 9 3 4 0 8 -6 8 -6 0 -8 5 -5 10 10 17 31 11
31 -8z m-182 -1 c3 -5 -3 -11 -14 -14 -22 -6 -37 8 -18 16 20 8 26 8 32 -2z
m261 -1 c-3 -5 -14 -10 -23 -10 -15 0 -15 2 -2 10 20 13 33 13 25 0z m-2761
-26 c3 -8 2 -12 -4 -9 -6 3 -10 10 -10 16 0 14 7 11 14 -7z m1584 -15 c-3 -8
-7 -3 -11 10 -4 17 -3 21 5 13 5 -5 8 -16 6 -23z m159 -1 c-3 -7 -5 -2 -5 12
0 14 2 19 5 13 2 -7 2 -19 0 -25z m-867 2 c0 -5 -2 -10 -4 -10 -3 0 -8 5 -11
10 -3 6 -1 10 4 10 6 0 11 -4 11 -10z m-940 -15 c-7 -9 -15 -13 -17 -11 -7 7
7 26 19 26 6 0 6 -6 -2 -15z m200 -19 c0 -3 -4 -8 -10 -11 -5 -3 -10 -1 -10 4
0 6 5 11 10 11 6 0 10 -2 10 -4z m50 -1 c0 -2 -10 -10 -22 -16 -21 -11 -22
-11 -9 4 13 16 31 23 31 12z m1300 1 c0 -3 -4 -8 -10 -11 -5 -3 -10 -1 -10 4
0 6 5 11 10 11 6 0 10 -2 10 -4z m-424 -91 c-11 -8 -25 -15 -30 -15 -6 1 0 7
14 15 32 19 40 18 16 0z m1398 6 c4 -5 -3 -7 -14 -4 -23 6 -26 13 -6 13 8 0
17 -4 20 -9z m-1884 -11 c0 -5 -2 -10 -4 -10 -3 0 -8 5 -11 10 -3 6 -1 10 4
10 6 0 11 -4 11 -10z m614 -25 c-26 -19 -31 -9 -8 16 11 12 20 16 22 9 2 -6
-4 -17 -14 -25z m66 32 c0 -2 -10 -12 -22 -23 l-23 -19 19 23 c18 21 26 27 26
19z m213 -65 c-16 -16 -16 -16 -10 1 4 10 7 28 8 40 0 22 0 22 10 -1 7 -18 5
-28 -8 -40z m-910 28 c3 -11 1 -18 -4 -14 -5 3 -9 12 -9 20 0 20 7 17 13 -6z
m187 -31 c0 -5 0 -12 -1 -15 -1 -10 44 -44 60 -45 10 0 6 -4 -8 -10 -18 -7
-21 -13 -13 -21 8 -8 15 -8 26 1 14 12 18 10 29 -22 5 -14 2 -16 -16 -12 -12
3 -40 7 -62 9 -74 8 -107 30 -111 75 -2 24 -1 23 14 -8 9 -19 24 -37 32 -39
13 -5 13 -3 1 11 -11 15 -11 17 2 17 17 0 30 40 21 64 -5 12 -2 15 10 10 9 -3
16 -10 16 -15z m50 -22 c0 -16 -18 3 -23 25 -6 22 -5 22 8 4 8 -11 15 -24 15
-29z m-623 27 c-3 -3 -12 -4 -19 -1 -8 3 -5 6 6 6 11 1 17 -2 13 -5z m1003 -4
c0 -5 -5 -10 -11 -10 -5 0 -7 5 -4 10 3 6 8 10 11 10 2 0 4 -4 4 -10z m-326
-56 c3 -8 2 -12 -4 -9 -6 3 -10 10 -10 16 0 14 7 11 14 -7z m216 -8 c0 -3 -4
-8 -10 -11 -5 -3 -10 -1 -10 4 0 6 5 11 10 11 6 0 10 -2 10 -4z m-205 -26 c3
-5 1 -10 -4 -10 -6 0 -11 5 -11 10 0 6 2 10 4 10 3 0 8 -4 11 -10z m37 -28
c-4 -13 -7 -12 -12 4 -4 10 -5 23 -2 28 7 13 21 -16 14 -32z m65 6 c-3 -7 -5
-2 -5 12 0 14 2 19 5 13 2 -7 2 -19 0 -25z m83 -1 c0 -16 -35 -1 -38 16 -3 16
-1 17 17 5 12 -7 21 -17 21 -21z m170 13 c30 -10 53 -19 50 -20 -3 -1 -25 -4
-50 -6 -25 -3 -47 -7 -49 -10 -2 -2 -10 4 -17 14 -11 14 -15 15 -23 3 -5 -8
-16 -11 -26 -7 -14 5 -16 2 -12 -15 4 -16 3 -19 -5 -11 -15 15 -2 42 21 42 10
0 21 7 25 15 7 19 19 19 86 -5z m-1027 -1117 c-7 -2 -19 -2 -25 0 -7 3 -2 5
12 5 14 0 19 -2 13 -5z"/>
<path d="M8640 12140 c20 -13 60 -13 60 0 0 6 -17 10 -37 10 -28 0 -34 -3 -23
-10z"/>
<path d="M9238 12023 c7 -3 16 -2 19 1 4 3 -2 6 -13 5 -11 0 -14 -3 -6 -6z"/>
<path d="M6914 11706 c-7 -19 0 -105 10 -128 12 -27 -13 -22 -40 7 -32 35 -75
33 -109 -4 -26 -27 -29 -28 -111 -24 -57 4 -84 1 -84 -6 0 -6 -7 -11 -15 -11
-8 0 -15 -7 -15 -15 0 -9 -10 -15 -26 -15 -19 0 -25 -4 -20 -15 4 -11 -1 -15
-19 -15 -29 0 -33 -16 -7 -24 40 -12 103 -16 97 -5 -4 6 2 5 14 -3 22 -14 28
-28 11 -28 -5 0 -10 -7 -10 -15 0 -22 48 -38 90 -30 85 15 106 16 90 5 -13
-10 -12 -11 3 -6 10 3 20 6 23 6 2 0 1 6 -2 14 -4 10 8 16 44 21 55 7 101 -12
103 -44 0 -10 2 -11 6 -3 2 6 9 9 15 6 7 -5 9 2 6 20 -3 14 -1 26 3 26 5 0 9
-5 9 -12 0 -6 8 -3 19 8 12 13 53 28 122 43 116 26 139 35 139 56 0 8 6 15 13
15 14 0 47 31 47 43 0 4 -13 4 -30 2 -94 -15 -87 -16 -94 15 -3 17 -9 43 -12
59 -7 32 -37 47 -54 26 -6 -7 -27 -15 -48 -18 -20 -3 -46 -9 -57 -12 -16 -5
-26 2 -45 32 -27 41 -56 54 -66 29z m-261 -230 c8 -21 -11 -24 -58 -12 l-40
11 35 6 c55 10 58 10 63 -5z"/>
<path d="M10184 11635 c11 -8 24 -15 29 -15 13 0 57 -36 52 -42 -3 -3 3 -13
14 -22 11 -10 21 -13 25 -7 3 5 -15 27 -41 48 -27 21 -50 40 -53 43 -3 3 -14
6 -25 8 -20 3 -20 2 -1 -13z"/>
<path d="M10334 11516 c10 -23 19 -30 35 -29 11 2 21 -2 21 -8 0 -5 -4 -7 -10
-4 -5 3 -10 1 -10 -4 0 -6 9 -11 20 -11 28 0 25 25 -6 45 -15 9 -23 11 -19 4
6 -8 4 -10 -4 -5 -7 5 -10 14 -7 21 2 7 -4 15 -14 18 -18 5 -18 3 -6 -27z"/>
<path d="M10507 11533 c-4 -3 -7 -11 -7 -17 0 -6 5 -5 12 2 6 6 9 14 7 17 -3
3 -9 2 -12 -2z"/>
<path d="M10520 11374 c1 -15 29 -48 36 -41 3 3 -3 16 -15 28 -12 13 -21 19
-21 13z"/>
<path d="M6625 11340 c28 -12 47 -12 40 0 -3 6 -18 10 -33 9 -24 0 -25 -1 -7
-9z"/>
<path d="M10535 11309 c-4 -5 10 -16 29 -26 20 -9 36 -20 36 -24 0 -4 9 -9 21
-12 13 -3 19 -1 16 6 -2 7 -8 12 -13 13 -5 0 -17 4 -27 9 -14 6 -15 10 -6 21
6 8 10 14 8 15 -36 6 -60 6 -64 -2z"/>
<path d="M6638 11293 c7 -3 16 -2 19 1 4 3 -2 6 -13 5 -11 0 -14 -3 -6 -6z"/>
<path d="M6674 11291 c4 -5 0 -12 -6 -14 -7 -3 -3 -6 9 -6 16 -1 21 3 17 14
-4 8 -10 15 -16 15 -5 0 -7 -4 -4 -9z"/>
<path d="M6700 11291 c0 -6 5 -13 10 -16 6 -3 10 1 10 9 0 9 -4 16 -10 16 -5
0 -10 -4 -10 -9z"/>
<path d="M10840 11010 c0 -5 5 -10 11 -10 5 0 7 5 4 10 -3 6 -8 10 -11 10 -2
0 -4 -4 -4 -10z"/>
<path d="M4100 10821 c0 -5 7 -12 16 -15 14 -5 15 -4 4 9 -14 17 -20 19 -20 6z"/>
<path d="M4062 10798 c2 -6 11 -13 19 -16 12 -3 12 -2 0 6 -11 8 -11 10 0 15
10 4 8 6 -4 6 -10 1 -17 -4 -15 -11z"/>
<path d="M3760 10380 c0 -5 5 -10 10 -10 6 0 10 5 10 10 0 6 -4 10 -10 10 -5
0 -10 -4 -10 -10z"/>
<path d="M3845 10380 c3 -5 8 -10 11 -10 2 0 4 5 4 10 0 6 -5 10 -11 10 -5 0
-7 -4 -4 -10z"/>
<path d="M3810 10355 c7 -8 20 -15 28 -15 13 0 12 3 -4 15 -25 19 -40 19 -24
0z"/>
<path d="M3885 10340 c3 -5 11 -10 16 -10 6 0 7 5 4 10 -3 6 -11 10 -16 10 -6
0 -7 -4 -4 -10z"/>
<path d="M3860 10321 c0 -9 30 -24 36 -18 2 1 -6 8 -16 15 -11 7 -20 8 -20 3z"/>
<path d="M3593 10186 c3 -7 0 -19 -6 -26 -8 -8 -5 -8 11 1 26 16 28 25 6 33
-11 4 -15 2 -11 -8z"/>
<path d="M11790 10000 c0 -5 5 -10 11 -10 5 0 7 5 4 10 -3 6 -8 10 -11 10 -2
0 -4 -4 -4 -10z"/>
<path d="M3307 9640 c-3 -11 -1 -20 4 -20 5 0 9 9 9 20 0 11 -2 20 -4 20 -2 0
-6 -9 -9 -20z"/>
<path d="M8782 9570 c0 -14 2 -19 5 -12 2 6 2 18 0 25 -3 6 -5 1 -5 -13z"/>
<path d="M8783 9515 c0 -14 3 -22 8 -19 5 3 9 11 9 19 0 8 -4 16 -9 19 -5 3
-8 -5 -8 -19z"/>
<path d="M11770 9460 c0 -5 5 -10 10 -10 6 0 10 5 10 10 0 6 -4 10 -10 10 -5
0 -10 -4 -10 -10z"/>
<path d="M4136 9419 c3 -5 16 -9 29 -9 27 0 42 -16 23 -23 -7 -2 -10 -8 -5
-12 4 -5 14 0 21 11 8 10 13 20 12 21 -7 8 -85 19 -80 12z"/>
<path d="M11770 9410 c0 -12 28 -25 36 -17 3 3 -4 10 -15 17 -15 7 -21 7 -21
0z"/>
<path d="M12065 9269 c-4 -6 -5 -13 -2 -16 7 -7 27 6 27 18 0 12 -17 12 -25
-2z"/>
<path d="M8758 9203 c7 -3 16 -2 19 1 4 3 -2 6 -13 5 -11 0 -14 -3 -6 -6z"/>
<path d="M11730 9150 c0 -5 5 -10 10 -10 6 0 10 5 10 10 0 6 -4 10 -10 10 -5
0 -10 -4 -10 -10z"/>
<path d="M11686 9075 c4 -8 8 -15 10 -15 2 0 4 7 4 15 0 8 -4 15 -10 15 -5 0
-7 -7 -4 -15z"/>
<path d="M11063 8580 c-32 -13 -29 -21 5 -10 56 18 58 18 37 19 -11 0 -30 -4
-42 -9z"/>
<path d="M5021 8572 c-1 -13 17 -53 28 -62 3 -3 19 -22 34 -42 l28 -38 23 23
c13 12 21 28 18 36 -4 10 -1 12 9 6 8 -5 11 -5 6 1 -5 5 -14 9 -19 9 -6 0 -13
6 -16 14 -3 9 0 11 7 6 9 -5 9 -1 -1 14 -14 23 -28 27 -28 9 0 -8 -7 -5 -15 6
-14 19 -15 19 -15 1 0 -18 -1 -18 -16 1 -15 18 -15 18 -11 -8 6 -37 0 -35 -17
5 -8 17 -15 26 -15 19z"/>
<path d="M10948 8543 c7 -3 16 -2 19 1 4 3 -2 6 -13 5 -11 0 -14 -3 -6 -6z"/>
<path d="M10885 8530 c-13 -5 -14 -9 -5 -9 8 0 24 4 35 9 13 5 14 9 5 9 -8 0
-24 -4 -35 -9z"/>
<path d="M5201 8503 c7 -12 15 -20 18 -17 3 2 -3 12 -13 22 -17 16 -18 16 -5
-5z"/>
<path d="M10625 8450 c-3 -6 1 -7 9 -4 18 7 21 14 7 14 -6 0 -13 -4 -16 -10z"/>
<path d="M7513 8429 c-26 -17 -30 -23 -20 -34 15 -17 46 0 58 33 10 27 3 27
-38 1z"/>
<path d="M5444 8381 c3 -5 17 -8 31 -8 13 0 22 3 19 8 -3 5 -16 9 -30 9 -14 0
-23 -4 -20 -9z"/>
<path d="M5489 8331 c12 -17 25 -31 29 -32 4 0 21 -3 37 -5 30 -5 30 -5 10 13
-17 15 -42 30 -89 52 -5 2 1 -10 13 -28z"/>
<path d="M7308 8329 c-21 -11 -38 -21 -38 -23 0 -2 11 -6 25 -8 17 -4 32 3 51
23 33 34 17 37 -38 8z"/>
<path d="M7726 8315 c-4 -11 2 -15 21 -15 21 0 24 2 13 15 -7 8 -16 15 -20 15
-4 0 -10 -7 -14 -15z"/>
<path d="M5630 8284 c0 -8 5 -12 10 -9 6 4 8 11 5 16 -9 14 -15 11 -15 -7z"/>
<path d="M6288 7583 c6 -2 18 -2 25 0 6 3 1 5 -13 5 -14 0 -19 -2 -12 -5z"/>
<path d="M6343 7573 c9 -2 23 -2 30 0 6 3 -1 5 -18 5 -16 0 -22 -2 -12 -5z"/>
<path d="M7078 7413 c7 -3 16 -2 19 1 4 3 -2 6 -13 5 -11 0 -14 -3 -6 -6z"/>
<path d="M9150 5764 c0 -9 80 -134 87 -134 6 0 -17 40 -54 94 -18 26 -33 45
-33 40z"/>
<path d="M8377 5723 c-4 -3 -7 -11 -7 -17 0 -6 5 -5 12 2 6 6 9 14 7 17 -3 3
-9 2 -12 -2z"/>
<path d="M9260 5580 c13 -25 26 -56 31 -70 6 -21 7 -19 8 16 1 33 -5 46 -30
70 l-31 29 22 -45z"/>
<path d="M9427 5421 c-4 -17 -3 -21 5 -13 5 5 8 16 6 23 -3 8 -7 3 -11 -10z"/>
<path d="M9990 5266 c-7 -13 -22 -29 -34 -34 -20 -10 -20 -11 4 -11 33 -1 75
42 57 58 -11 8 -17 5 -27 -13z"/>
<path d="M8016 4823 c-2 -10 -7 -28 -11 -40 -6 -21 -3 -23 36 -23 39 0 41 1
27 18 -9 9 -19 27 -22 40 -9 26 -23 29 -30 5z"/>
<path d="M7504 4814 c-56 -14 -63 -21 -30 -30 25 -6 95 16 121 38 12 11 -35 7
-91 -8z"/>
<path d="M7869 4825 c-3 -2 -14 -6 -25 -8 -10 -1 -29 -10 -42 -18 l-23 -16 28
-12 c55 -22 103 -18 103 8 0 40 -23 65 -41 46z"/>
<path d="M8183 4793 c0 -25 23 -43 56 -43 26 0 29 41 4 61 -11 10 -14 10 -9 2
4 -7 2 -13 -3 -13 -6 0 -11 4 -11 8 0 4 -8 8 -19 8 -13 0 -18 -7 -18 -23z"/>
<path d="M7670 4780 c-18 -6 -20 -8 -7 -9 11 -1 15 -6 11 -12 -4 -7 0 -10 11
-7 10 1 19 11 21 21 2 19 1 19 -36 7z"/>
<path d="M7384 4652 c-6 -5 -4 -13 8 -24 19 -19 21 -15 10 14 -4 10 -12 14
-18 10z"/>
<path d="M7360 4615 c0 -8 5 -15 10 -15 6 0 10 7 10 15 0 8 -4 15 -10 15 -5 0
-10 -7 -10 -15z"/>
<path d="M7085 4500 c-13 -6 -15 -9 -5 -9 8 0 22 4 30 9 18 12 2 12 -25 0z"/>
<path d="M7630 4410 c0 -5 5 -10 10 -10 6 0 10 5 10 10 0 6 -4 10 -10 10 -5 0
-10 -4 -10 -10z"/>
<path d="M7690 4405 c-8 -9 -8 -15 -2 -15 12 0 26 19 19 26 -2 2 -10 -2 -17
-11z"/>
<path d="M7450 4300 c0 -5 5 -10 11 -10 5 0 7 5 4 10 -3 6 -8 10 -11 10 -2 0
-4 -4 -4 -10z"/>
<path d="M9016 4125 c4 -8 8 -15 10 -15 2 0 4 7 4 15 0 8 -4 15 -10 15 -5 0
-7 -7 -4 -15z"/>
</g>
</svg>
